<svg viewBox="0 0 320 320" xmlns="http://www.w3.org/2000/svg" shape-rendering="crispEdges">
  <rect width="320" height="320" fill="#0d1117"/>
  <rect x="80" y="60" width="160" height="120" fill="#378ADD"/>
  <rect x="100" y="80" width="120" height="80" fill="#0d1117"/>
  <rect x="110" y="90" width="50" height="10" fill="#97C459"/>
  <rect x="110" y="105" width="80" height="10" fill="#FAC775"/>
  <rect x="120" y="120" width="60" height="10" fill="#E24B4A"/>
  <rect x="110" y="135" width="40" height="10" fill="#97C459"/>
  <rect x="110" y="150" width="70" height="10" fill="#FAC775"/>
  <rect x="80" y="180" width="160" height="10" fill="#185FA5"/>
  <rect x="40" y="190" width="240" height="20" fill="#85B7EB"/>
  <rect x="20" y="210" width="280" height="20" fill="#378ADD"/>
  <rect x="140" y="212" width="40" height="14" fill="#185FA5"/>
  <rect x="60" y="196" width="14" height="8" fill="#0d1117"/>
  <rect x="84" y="196" width="14" height="8" fill="#0d1117"/>
  <rect x="108" y="196" width="14" height="8" fill="#0d1117"/>
  <rect x="132" y="196" width="14" height="8" fill="#0d1117"/>
  <rect x="156" y="196" width="14" height="8" fill="#0d1117"/>
  <rect x="180" y="196" width="14" height="8" fill="#0d1117"/>
  <rect x="204" y="196" width="14" height="8" fill="#0d1117"/>
  <rect x="228" y="196" width="14" height="8" fill="#0d1117"/>
  <rect x="252" y="196" width="14" height="8" fill="#0d1117"/>
</svg>
